<svg xmlns="http://www.w3.org/2000/svg" viewBox="0 0 3240 3240" width="60" height="60">
<path d="M0 0 C1069.2 0 2138.4 0 3240 0 C3240 1069.2 3240 2138.4 3240 3240 C2170.8 3240 1101.6 3240 0 3240 C0 2170.8 0 1101.6 0 0 Z " fill="#0E0E13" transform="translate(0,0)"/>
<path d="M0 0 C21.72224614 18.79004212 32.45774463 44.72293895 44.63818359 70.14550781 C49.17898899 79.62253081 53.79501241 89.06270553 58.40771484 98.50488281 C60.13197967 102.03598323 61.85587543 105.56726368 63.57958984 109.09863281 C64.21617271 110.40275116 64.21617271 110.40275116 64.86561584 111.73321533 C68.9739165 120.15180032 73.06760122 128.57745023 77.15771484 137.00488281 C83.12611243 149.3018111 89.10648805 161.59284211 95.09521484 173.87988281 C101.4527367 186.9237777 107.80029536 199.97244793 114.13720703 213.02636719 C119.77970373 224.64917143 125.43464288 236.26587179 131.09521484 247.87988281 C137.45270726 260.92379208 143.80029534 273.97244788 150.13720703 287.02636719 C155.37882024 297.82340395 160.63055532 308.61546863 165.88885498 319.40438843 C167.09156517 321.87239355 168.29389811 324.34058208 169.49609375 326.80883789 C170.29215199 328.44319805 171.08821318 330.07755678 171.88427734 331.71191406 C172.2766861 332.51756302 172.66909485 333.32321198 173.07339478 334.15327454 C175.00686289 338.12213895 176.94166073 342.09034521 178.87939453 346.05712891 C183.15270402 354.8053344 187.41052008 363.56067263 191.63916016 372.33056641 C192.92343497 374.99308153 194.21458772 377.65206953 195.51220703 380.30810547 C210.32521974 410.66298379 219.08454829 441.63098127 207.73339844 474.90625 C197.06450606 503.63403198 177.97033426 526.9699897 150.09521484 540.19238281 C133.68622135 547.62372021 118.05158103 550.69105306 100.02337646 550.64057922 C98.47762088 550.64360542 96.93186679 550.64749723 95.38611531 550.65217179 C91.16850099 550.6624004 86.95097216 550.66028315 82.73335099 550.6559912 C78.17287687 550.65351456 73.61242284 550.66254978 69.05195618 550.67002869 C60.1286989 550.6827521 51.20547175 550.68457229 42.28220692 550.68222842 C35.02528512 550.68044233 27.76837243 550.68220115 20.51145172 550.68645287 C18.95967919 550.68734565 18.95967919 550.68734565 17.37655772 550.68825647 C15.27463283 550.68946828 13.17270794 550.69068241 11.07078305 550.69189885 C-8.62401056 550.70276547 -28.31878703 550.70061615 -48.0135816 550.694514 C-66.0080742 550.68934662 -84.00251264 550.70059714 -101.99699453 550.71961222 C-120.49801983 550.73901185 -138.99901954 550.74724283 -157.50005507 550.74348897 C-167.87719363 550.74158002 -178.2542861 550.74403448 -188.63141632 550.75820351 C-197.46649973 550.77014544 -206.3015087 550.7714908 -215.13659319 550.75941334 C-219.63884956 550.75354413 -224.14096995 550.75237064 -228.64321709 550.76441574 C-232.77503969 550.77534076 -236.90661387 550.77209346 -241.03842518 550.75815406 C-242.52286345 550.75552518 -244.00732162 550.75781584 -245.49174026 550.76588992 C-258.6156174 550.83224541 -271.59177619 549.30438374 -283.96728516 544.69238281 C-284.6650708 544.43674561 -285.36285645 544.1811084 -286.08178711 543.91772461 C-313.64931627 533.45871066 -335.16681395 513.05286437 -347.4675293 486.30834961 C-350.33506522 479.82657167 -352.75387112 473.28292749 -354.40478516 466.37988281 C-354.66642456 465.32353638 -354.66642456 465.32353638 -354.93334961 464.24584961 C-356.5207554 457.25378901 -356.75224874 450.46971507 -356.71728516 443.31738281 C-356.71237061 442.12798096 -356.70745605 440.9385791 -356.70239258 439.71313477 C-356.40682775 417.36994934 -349.13981714 399.2605965 -339.34228516 379.50488281 C-338.45966819 377.7110388 -337.5775988 375.91692528 -336.69604492 374.12255859 C-329.69406228 359.89355406 -322.60718262 345.70557956 -315.46899414 331.54443359 C-311.2286315 323.11918085 -307.08434836 314.65592605 -303.03369141 306.13769531 C-297.02273174 293.50149326 -290.75027645 281.00222774 -284.45703125 268.50488281 C-279.17491217 258.00838699 -273.94910188 247.49304588 -268.90478516 236.87988281 C-262.9392334 224.32845572 -256.70707267 211.91643219 -250.45703125 199.50488281 C-245.17491217 189.00838699 -239.94910188 178.49304588 -234.90478516 167.87988281 C-228.9392334 155.32845572 -222.70707267 142.91643219 -216.45703125 130.50488281 C-210.70260165 119.06982325 -205.04786619 107.59824463 -199.55192566 96.03660583 C-194.41985449 85.26538837 -189.07179174 74.60427845 -183.71728516 63.94238281 C-182.23717146 60.98969091 -180.75763506 58.03671027 -179.27816772 55.08369446 C-178.32311459 53.17873241 -177.36710078 51.27425164 -176.4100647 49.37028503 C-174.28122804 45.13423297 -172.16118932 40.89477793 -170.07617188 36.63696289 C-169.71887497 35.91085312 -169.36157806 35.18474335 -168.99345398 34.43663025 C-168.34739797 33.12180818 -167.7053596 31.80499881 -167.06867981 30.48561096 C-163.95290474 24.16122591 -159.88485827 18.80689856 -155.40478516 13.37988281 C-154.79248047 12.60386719 -154.18017578 11.82785156 -153.54931641 11.02832031 C-137.35076479 -8.52046479 -110.86904252 -22.56303286 -85.72216797 -25.42089844 C-54.43384335 -28.11066591 -24.32390934 -20.42171749 0 0 Z " fill="#FEF9EA" transform="translate(1513.40478515625,1357.6201171875)"/>
<path d="M0 0 C21.26384403 17.40813157 32.31334789 40.39405201 43.8737793 64.83422852 C48.95165555 75.5574102 54.1797088 86.2064253 59.3984375 96.86157227 C66.55093932 111.47056809 73.69120845 126.08502081 80.76831055 140.73071289 C84.01380316 147.44369034 87.27669488 154.14753295 90.56867981 160.83786011 C92.34973593 164.45789943 94.12670833 168.07993787 95.90371704 171.70196533 C96.76971633 173.46388522 97.63783405 175.22476558 98.50814819 176.98455811 C99.71642635 179.42799297 100.91751153 181.87484271 102.1171875 184.32250977 C102.66431145 185.42157654 102.66431145 185.42157654 103.2224884 186.54284668 C105.7109375 191.64519627 105.7109375 191.64519627 105.7109375 194.98657227 C106.3709375 194.98657227 107.0309375 194.98657227 107.7109375 194.98657227 C108.05898438 193.8007959 108.40703125 192.61501953 108.765625 191.39331055 C111.09127235 184.43955052 114.5282972 178.00174465 117.8359375 171.47875977 C118.5457589 170.06728408 119.25497495 168.65550384 119.96362305 167.24343872 C121.82834101 163.5310472 123.69986573 159.82213318 125.57330322 156.11413574 C128.89789098 149.53131286 132.2108347 142.94261944 135.5234375 136.35375977 C135.88246847 135.64020702 136.24149944 134.92665428 136.61141014 134.19147873 C141.46567502 124.53974254 146.21770818 114.84777355 150.8441925 105.08428955 C155.8628268 94.51053989 161.13501389 84.06501294 166.3984375 73.61157227 C168.36318526 69.70918117 170.32585036 65.80576115 172.28515625 61.90063477 C172.75414841 60.96646225 173.22314056 60.03228973 173.7063446 59.06980896 C176.92934616 52.6224913 180.04894194 46.1334606 183.01957703 39.56570435 C194.93172784 13.62153052 218.0814939 -7.04310254 244.7109375 -17.01342773 C271.99377124 -26.09613532 300.3179607 -25.53712183 326.7109375 -14.01342773 C327.63350342 -13.61099854 327.63350342 -13.61099854 328.57470703 -13.20043945 C337.50186795 -9.21505717 345.18578617 -4.22807652 352.7109375 1.98657227 C353.64808594 2.7587207 354.58523438 3.53086914 355.55078125 4.32641602 C375.4305321 21.52951037 388.7264812 46.87257963 391.7109375 72.98657227 C393.32509517 104.22490268 384.62246148 128.20059497 370.5234375 155.67407227 C368.35888249 159.92574947 366.20086299 164.1807302 364.04296875 168.43579102 C363.24126755 170.01225906 363.24126755 170.01225906 362.42337036 171.62057495 C358.43067933 179.49470509 354.59527406 187.43501881 350.8117218 195.41130066 C345.12665277 207.3703812 339.14404801 219.18014272 333.19042969 231.00708008 C327.28057137 242.75458623 321.46308835 254.53498622 315.81896973 266.41259766 C310.30771601 277.98242686 304.5267757 289.41603084 298.76318359 300.86157227 C293.48106451 311.35806809 288.25525422 321.8734092 283.2109375 332.48657227 C277.24538575 345.03799936 271.01322502 357.45002289 264.76318359 369.86157227 C259.48106451 380.35806809 254.25525422 390.8734092 249.2109375 401.48657227 C243.24538575 414.03799936 237.01322502 426.45002289 230.76318359 438.86157227 C224.89686621 450.51897246 219.11550192 462.20793135 213.52587891 474.00097656 C197.71650669 507.3249811 178.90266931 533.51008404 143.078125 546.74829102 C141.52113355 547.29440356 139.9612642 547.83238988 138.3984375 548.36157227 C137.34233276 548.71964966 137.34233276 548.71964966 136.26489258 549.08496094 C108.46861623 558.00001767 79.48021815 552.91317944 53.8918457 540.16870117 C46.37816796 536.29833537 40.06079661 531.58503138 33.7109375 525.98657227 C32.79828125 525.28854492 32.79828125 525.28854492 31.8671875 524.57641602 C10.91935567 508.42089477 0.51496045 478.17934337 -10.45166016 455.08789062 C-15.54571173 444.3896775 -20.7661122 433.75343587 -25.9765625 423.11157227 C-32.49869162 409.78888467 -39.01347941 396.46301778 -45.4765625 383.11157227 C-51.20939588 371.26983751 -56.96164956 359.43772477 -62.7265625 347.61157227 C-68.75663147 335.24104196 -74.77927574 322.86696907 -80.7890625 310.48657227 C-86.77860517 298.14813191 -92.78003032 285.8155324 -98.7890625 273.48657227 C-105.14655492 260.442663 -111.49414299 247.3940072 -117.83105469 234.34008789 C-123.07315074 223.54205654 -128.3253307 212.748978 -133.58407593 201.95904541 C-137.15335734 194.63535181 -140.72131711 187.31101423 -144.2890625 179.98657227 C-144.67978943 179.18449341 -145.07051636 178.38241455 -145.4730835 177.55603027 C-147.78117527 172.81767117 -150.08797233 168.07868535 -152.39306641 163.33886719 C-153.09759477 161.89059944 -153.80249013 160.44251013 -154.5078125 158.99462891 C-158.26275716 151.28580818 -161.97979945 143.5606974 -165.6328125 135.80297852 C-165.96488205 135.09783112 -166.2969516 134.39268372 -166.63908386 133.66616821 C-178.83539997 107.68556902 -181.25357899 78.38078378 -172.1015625 50.98657227 C-167.19164328 38.11818697 -161.13163891 26.61583364 -152.2890625 15.98657227 C-151.19078125 14.66012695 -151.19078125 14.66012695 -150.0703125 13.30688477 C-136.24364386 -2.71062926 -116.65353273 -14.44542068 -96.2890625 -20.01342773 C-95.20882812 -20.31249023 -94.12859375 -20.61155273 -93.015625 -20.91967773 C-61.08349001 -28.53263707 -25.66691273 -20.24790753 0 0 Z " fill="#FEF9EA" transform="translate(777.2890625,1355.013427734375)"/>
<path d="M0 0 C1.67918695 -0.00599847 3.35837118 -0.01280701 5.03755188 -0.02035522 C9.5770573 -0.03792939 14.11648711 -0.04270813 18.65602326 -0.0439868 C21.51752815 -0.04541856 24.37901451 -0.04970824 27.24051476 -0.05498123 C37.29935267 -0.07348228 47.35813784 -0.08165535 57.41699219 -0.08007812 C65.64721561 -0.07902025 73.87724733 -0.09293772 82.10742188 -0.12109375 C171.08865253 -0.41887985 171.08865253 -0.41887985 208.04370117 4.29052734 C209.458962 4.46402269 210.87423495 4.63741925 212.28952026 4.81071472 C220.39081801 5.8310706 228.00094061 7.37897223 235.79370117 9.85302734 C236.91059326 10.20453857 238.02748535 10.5560498 239.17822266 10.91821289 C259.7977293 17.6131648 278.63150599 28.06852112 295.04370117 42.29052734 C296.26766602 43.35013672 296.26766602 43.35013672 297.51635742 44.43115234 C300.06154337 46.68130128 302.55914615 48.97368953 305.04370117 51.29052734 C305.83389648 52.01498047 306.6240918 52.73943359 307.43823242 53.48583984 C338.35922308 82.95818959 357.15410375 127.64075851 358.37963867 170.13037109 C358.40969083 172.83110207 358.42656658 175.5275704 358.41870117 178.22802734 C358.41788544 179.29627747 358.41788544 179.29627747 358.41705322 180.3861084 C358.24487875 229.8649207 337.84227898 275.00570978 303.01879883 309.61791992 C275.4203593 336.34299111 237.68938033 352.88592263 199.39624023 354.89672852 C193.46332464 355.22032933 187.58455684 355.83741603 181.68579102 356.54248047 C170.83119395 357.82752715 160.11762909 358.43494571 149.18432617 358.38818359 C147.27873932 358.38606117 147.27873932 358.38606117 145.33465576 358.38389587 C142.00078316 358.37928739 138.6669827 358.3703456 135.33312988 358.35919189 C131.91374323 358.34885617 128.49434904 358.34437254 125.07495117 358.33935547 C118.39784839 358.32839528 111.72077893 358.31170963 105.04370117 358.29052734 C105.04738834 358.89146115 105.05107552 359.49239496 105.05487442 360.11153889 C105.14371771 374.82238503 105.20964781 389.53321521 105.25094986 404.24426746 C105.27146084 411.35882596 105.29935798 418.47320396 105.34545898 425.58764648 C105.38568234 431.79806283 105.41121694 438.0083483 105.42005515 444.21889132 C105.42521087 447.49882775 105.43927291 450.77830889 105.4666214 454.05814552 C105.7483996 489.28622766 97.63372979 519.53676148 72.41870117 545.41552734 C61.56399216 556.19667503 49.06849497 563.40357686 35.04370117 569.29052734 C34.11170898 569.69013672 33.1797168 570.08974609 32.21948242 570.50146484 C6.05070028 580.90639167 -24.3162636 578.06199005 -49.82739258 567.20849609 C-59.8798818 562.68057802 -68.53568602 556.34723808 -76.95629883 549.29052734 C-77.80836914 548.62279297 -78.66043945 547.95505859 -79.53833008 547.26708984 C-95.69997294 534.05579535 -105.73302511 513.05053108 -110.95629883 493.29052734 C-111.16899414 492.54416016 -111.38168945 491.79779297 -111.60083008 491.02880859 C-114.29366268 481.16800433 -114.10354817 471.18310771 -114.09674072 461.04821777 C-114.09932785 459.50164037 -114.10234198 457.95506363 -114.10574412 456.4084878 C-114.11377657 452.17464725 -114.11560159 447.94082368 -114.11634159 443.70697641 C-114.11819872 439.134165 -114.12574936 434.56136227 -114.13247681 429.98855591 C-114.14603404 419.99653175 -114.15208081 410.00451161 -114.15648746 400.01247978 C-114.15925437 393.76770315 -114.16349254 387.52292806 -114.16799164 381.27815247 C-114.18018101 363.9718409 -114.19048091 346.66553055 -114.19386673 329.35921478 C-114.1940863 328.2524856 -114.19430586 327.14575641 -114.19453208 326.00548998 C-114.19475036 324.89618524 -114.19496864 323.78688051 -114.19519353 322.64396048 C-114.19563699 320.39626662 -114.19608355 318.14857276 -114.1965332 315.90087891 C-114.19675463 314.78595654 -114.19697606 313.67103418 -114.1972042 312.52232629 C-114.20115009 294.46688949 -114.21859923 276.41149309 -114.24189273 258.35607189 C-114.26564111 239.79750962 -114.27807017 221.23896759 -114.27923465 202.68038988 C-114.28014946 192.26907683 -114.28585281 181.85781644 -114.30405426 171.44651794 C-114.31950239 162.57918945 -114.32454802 153.71192989 -114.31631616 144.84459049 C-114.31242626 140.32602536 -114.31325744 135.80759886 -114.3273735 131.28905106 C-114.34021274 127.14102558 -114.33882823 122.99324148 -114.32678279 118.84521586 C-114.32484298 117.35595708 -114.32782338 115.86668061 -114.33662716 114.37744659 C-114.51040276 82.95645569 -103.76890654 54.0668722 -81.76879883 31.54052734 C-74.83543985 24.68260724 -67.3977045 19.14874395 -58.95629883 14.29052734 C-58.37525391 13.95585449 -57.79420898 13.62118164 -57.19555664 13.27636719 C-39.12210444 3.10813901 -20.48285465 -0.01473924 0 0 Z " fill="#FEF9EA" transform="translate(1954.956298828125,1331.70947265625)"/>
<path d="M0 0 C29.03454856 -0.80983423 55.45992302 6.27461451 78.09667969 25.05761719 C79.37091797 26.08628906 79.37091797 26.08628906 80.67089844 27.13574219 C99.82274559 43.37121701 114.42856999 69.13306341 116.64471912 94.34357452 C117.22742564 101.80486785 117.23899611 109.25419344 117.23039246 116.7322998 C117.23226422 118.28915445 117.23456638 119.84600863 117.23725778 121.40286207 C117.24333661 125.65098127 117.24324685 129.89908066 117.2420634 134.14720321 C117.24185841 138.74031482 117.24738741 143.33342024 117.25212097 147.92652893 C117.26040569 156.91260666 117.26317479 165.89867783 117.26373335 174.88475907 C117.26420938 182.1903398 117.26626847 189.49591837 117.26943398 196.80149841 C117.27823326 217.53206198 117.28285429 238.26262037 117.2821035 258.99318582 C117.28206355 260.10934563 117.28202359 261.22550544 117.28198242 262.37548828 C117.28194154 263.49301631 117.28190066 264.61054433 117.28185854 265.76193684 C117.28145189 283.881983 117.2910281 302.0020084 117.30512079 320.12204856 C117.31949004 338.74509224 117.32639072 357.3681258 117.32552701 375.99117517 C117.32519532 386.43971796 117.32793062 396.88823895 117.33870506 407.33677673 C117.3478171 416.22978427 117.34997938 425.12276013 117.34319564 434.01577032 C117.3399345 438.54990913 117.3398592 443.08398719 117.34854889 447.61812019 C117.35643229 451.77435631 117.35496375 455.93048367 117.34626476 460.08671719 C117.34473386 461.58454374 117.34653034 463.08237848 117.35212483 464.58019537 C117.45786813 494.91692374 106.79885134 522.24935987 85.86230469 544.37402344 C63.71370753 565.86567068 35.41276442 576.54893168 4.73730469 576.28808594 C-25.57182098 575.60991273 -52.34414493 562.71732583 -73.27832031 541.02246094 C-91.42574803 520.52558946 -101.23109628 495.58073463 -101.17074585 468.24584961 C-101.17448603 466.63739878 -101.17908901 465.02894977 -101.18447649 463.42050362 C-101.19667695 459.01562185 -101.19644951 454.61081621 -101.19408774 450.20592141 C-101.19367882 445.44905195 -101.2047261 440.69220665 -101.21420288 435.93534851 C-101.23079871 426.6203167 -101.23631183 417.3053102 -101.23742764 407.99026483 C-101.23837898 400.41434364 -101.24249361 392.83843077 -101.24882889 385.26251221 C-101.26643907 363.76482398 -101.27566835 342.2671557 -101.27416794 320.7694602 C-101.27408803 319.61109986 -101.27400812 318.45273952 -101.27392578 317.25927734 C-101.27384402 316.09949576 -101.27376226 314.93971417 -101.27367802 313.74478769 C-101.27286565 294.96185083 -101.29199146 276.17899426 -101.32020251 257.39608061 C-101.34896697 238.09170605 -101.36274078 218.78737058 -101.36101496 199.48297405 C-101.36035219 188.65246375 -101.36579474 177.82203758 -101.38737106 166.99154663 C-101.40562997 157.76737159 -101.40989179 148.5433188 -101.39635222 139.31913346 C-101.3898457 134.61826072 -101.38962098 129.91762218 -101.40705872 125.21677208 C-101.42289816 120.90214653 -101.41981624 116.58793874 -101.40249045 112.2733227 C-101.39944423 110.72349947 -101.40296174 109.17364421 -101.4142106 107.62385881 C-101.50856223 93.68680923 -99.26801706 80.17358147 -93.65332031 67.30761719 C-93.3573999 66.6120874 -93.06147949 65.91655762 -92.7565918 65.19995117 C-80.98214351 38.37781329 -59.08220631 17.9122118 -32.12255859 6.89794922 C-21.71155066 2.95573917 -11.12901584 0.33689684 0 0 Z " fill="#FEF9EA" transform="translate(2519.9033203125,1331.9423828125)"/>
</svg>
